<?xml version="1.0" encoding="utf-8"?>
<!-- Generator: Adobe Illustrator 26.5.0, SVG Export Plug-In . SVG Version: 6.00 Build 0)  -->
<svg version="1.1" id="Layer_1" xmlns="http://www.w3.org/2000/svg" xmlns:xlink="http://www.w3.org/1999/xlink" x="0px" y="0px"
	 viewBox="0 0 14.397 28.714" style="enable-background:new 0 0 14.397 28.714;" xml:space="preserve">
<style type="text/css">
	.st0{fill:#00E0BF;}
	.st1{fill:#FFFFFF;}
	.st2{fill:#102545;}
	.st3{fill:#B2F6EC;}
</style>
<g>
	<polygon class="st0" points="7.223,28.296 13.979,24.39 13.979,12.128 7.223,16.033 0.458,12.128 0.458,24.39 	"/>
	<polygon class="st1" points="7.223,8.222 0.458,12.128 7.223,16.033 13.979,12.128 	"/>
	<path class="st2" d="M14.188,11.766L11.02,9.935l-0.834,0.482l2.959,1.711l-5.923,3.423l-5.93-3.423l2.963-1.711L3.421,9.935
		l-3.172,1.831C0.12,11.841,0.04,11.979,0.04,12.128V24.39c0,0.149,0.08,0.287,0.209,0.362l6.765,3.906
		c0.065,0.037,0.137,0.056,0.209,0.056c0.072,0,0.144-0.019,0.209-0.056l6.757-3.906c0.129-0.075,0.209-0.212,0.209-0.361V12.128
		C14.397,11.979,14.317,11.841,14.188,11.766z M6.805,27.573l-5.93-3.424V12.851l5.043,2.911l0.887,0.512V27.573z M13.562,24.149
		L7.64,27.572V16.274l1.046-0.605l4.876-2.818V24.149z"/>
	<polygon class="st3" points="7.223,12.13 13.979,8.224 7.223,4.319 0.458,8.224 	"/>
	<path class="st2" d="M14.188,7.863l-3.166-1.83l-0.834,0.482l2.957,1.709l-5.923,3.424l-5.93-3.424l2.961-1.709L3.419,6.033
		l-3.17,1.83C0.12,7.937,0.04,8.075,0.04,8.224c0,0.149,0.08,0.287,0.209,0.362l6.765,3.906c0.065,0.037,0.137,0.056,0.209,0.056
		c0.072,0,0.144-0.019,0.209-0.056l6.757-3.906c0.129-0.075,0.209-0.212,0.209-0.361C14.397,8.075,14.317,7.937,14.188,7.863z"/>
	<polygon class="st0" points="7.223,8.229 10.188,6.515 11.022,6.033 13.979,4.323 7.223,0.418 0.458,4.323 3.419,6.033 
		4.254,6.515 	"/>
	<path class="st2" d="M7.223,8.646c-0.072,0-0.144-0.019-0.209-0.056L0.249,4.685C0.12,4.61,0.04,4.472,0.04,4.323
		s0.08-0.287,0.209-0.362l6.765-3.906c0.129-0.075,0.288-0.075,0.418,0l6.757,3.906c0.129,0.075,0.209,0.212,0.209,0.361
		s-0.08,0.287-0.209,0.361L7.432,8.59C7.367,8.628,7.295,8.646,7.223,8.646z M1.293,4.323l5.93,3.424l5.923-3.424L7.222,0.9
		L1.293,4.323z"/>
</g>
</svg>
