<?xml version="1.0" encoding="utf-8"?>
<!-- Generator: Adobe Illustrator 26.5.0, SVG Export Plug-In . SVG Version: 6.00 Build 0)  -->
<svg version="1.1" id="Layer_1" xmlns="http://www.w3.org/2000/svg" xmlns:xlink="http://www.w3.org/1999/xlink" x="0px" y="0px"
	 viewBox="0 0 78.072 29.277" style="enable-background:new 0 0 78.072 29.277;" xml:space="preserve">
<style type="text/css">
	.st0{fill:#00E0BF;}
	.st1{fill:#FFFFFF;}
	.st2{fill:#102545;}
	.st3{fill:#B2F6EC;}
</style>
<g>
	<g>
		<polygon class="st0" points="7.323,28.851 14.213,24.869 14.213,12.366 7.323,16.348 0.426,12.366 0.426,24.869 		"/>
		<polygon class="st1" points="7.323,8.383 0.426,12.366 7.323,16.348 14.213,12.366 		"/>
		<path class="st2" d="M14.426,11.997l-3.23-1.867l-0.851,0.492l3.017,1.744l-6.039,3.491l-6.046-3.491l3.021-1.744L3.447,10.13
			l-3.234,1.867C0.081,12.073,0,12.214,0,12.366v12.503c0,0.152,0.081,0.293,0.213,0.369L7.11,29.22
			c0.066,0.038,0.139,0.057,0.213,0.057c0.074,0,0.147-0.019,0.213-0.057l6.889-3.982c0.132-0.076,0.213-0.217,0.213-0.369V12.366
			C14.639,12.214,14.557,12.073,14.426,11.997z M6.898,28.114l-6.046-3.491v-11.52l5.142,2.969l0.904,0.522V28.114z M13.787,24.623
			l-6.038,3.49v-11.52l1.066-0.616l4.972-2.874V24.623z"/>
		<polygon class="st3" points="7.323,12.368 14.213,8.386 7.323,4.403 0.426,8.386 		"/>
		<path class="st2" d="M14.426,8.017l-3.228-1.866l-0.851,0.492l3.015,1.743l-6.039,3.491L1.277,8.386l3.019-1.743L3.445,6.151
			L0.213,8.017C0.081,8.093,0,8.234,0,8.386c0,0.152,0.081,0.293,0.213,0.369l6.898,3.982c0.066,0.038,0.139,0.057,0.213,0.057
			c0.074,0,0.147-0.019,0.213-0.057l6.889-3.982c0.132-0.076,0.213-0.217,0.213-0.369C14.639,8.234,14.557,8.093,14.426,8.017z"/>
		<polygon class="st0" points="7.323,8.39 10.347,6.643 11.197,6.151 14.213,4.408 7.323,0.426 0.426,4.408 3.445,6.151 
			4.296,6.643 		"/>
		<path class="st2" d="M7.323,8.816c-0.074,0-0.147-0.019-0.213-0.057L0.213,4.777C0.081,4.701,0,4.56,0,4.408
			c0-0.152,0.081-0.293,0.213-0.369L7.11,0.057c0.132-0.076,0.294-0.076,0.426,0l6.889,3.982c0.132,0.076,0.213,0.217,0.213,0.369
			c0,0.152-0.081,0.292-0.213,0.369L7.536,8.759C7.47,8.797,7.397,8.816,7.323,8.816z M1.277,4.408l6.046,3.491l6.039-3.491
			L7.323,0.917L1.277,4.408z"/>
	</g>
	<g>
		<g>
			<path class="st2" d="M20.704,1.63c-0.575,0-1.028,0.47-1.028,1.028s0.453,1.011,1.028,1.011c0.558,0,1.011-0.453,1.011-1.011
				S21.262,1.63,20.704,1.63z"/>
			<rect x="19.938" y="5.255" class="st2" width="1.516" height="8.713"/>
			<path class="st2" d="M24.311,9.35c0-2.056,1.133-2.875,2.527-2.875c1.342,0,2.161,0.802,2.161,2.231v5.263h1.516v-5.35
				c0-2.231-1.342-3.59-3.381-3.59c-1.22,0-2.178,0.453-2.823,1.481V5.255h-1.516v8.713h1.516V9.35z"/>
			<path class="st2" d="M39.002,12.469v1.499h1.516V1.769h-1.516v4.984c-0.697-1.063-1.812-1.725-3.294-1.725
				c-2.422,0-4.409,2.004-4.409,4.583s1.987,4.583,4.409,4.583C37.19,14.194,38.305,13.532,39.002,12.469z M32.816,9.611
				c0-1.777,1.342-3.119,3.084-3.119c1.76,0,3.102,1.342,3.102,3.119S37.66,12.73,35.9,12.73
				C34.158,12.73,32.816,11.389,32.816,9.611z"/>
			<path class="st2" d="M45.921,5.028c-2.719,0-4.566,2.004-4.566,4.583c0,2.614,1.865,4.583,4.67,4.583
				c1.743,0,3.067-0.784,3.834-1.969l-1.29-0.732c-0.436,0.714-1.307,1.272-2.509,1.272c-1.621,0-2.858-0.889-3.154-2.457h7.302
				c0.035-0.227,0.052-0.453,0.052-0.68C50.26,7.189,48.552,5.028,45.921,5.028z M42.906,8.984c0.244-1.516,1.377-2.527,3.015-2.527
				c1.307,0,2.544,0.802,2.806,2.527H42.906z"/>
			<rect x="51.027" y="1.769" class="st2" width="1.516" height="12.198"/>
			<path class="st2" d="M54.651,1.63c-0.575,0-1.028,0.47-1.028,1.028s0.453,1.011,1.028,1.011c0.558,0,1.011-0.453,1.011-1.011
				S55.209,1.63,54.651,1.63z"/>
			<rect x="53.884" y="5.255" class="st2" width="1.516" height="8.713"/>
			<path class="st2" d="M61.552,5.028c-1.481,0-2.597,0.662-3.294,1.725V1.769h-1.516v12.198h1.516v-1.499
				c0.697,1.063,1.812,1.725,3.294,1.725c2.422,0,4.409-2.004,4.409-4.583S63.974,5.028,61.552,5.028z M61.36,12.73
				c-1.76,0-3.102-1.342-3.102-3.119S59.6,6.492,61.36,6.492c1.743,0,3.084,1.342,3.084,3.119S63.103,12.73,61.36,12.73z"/>
			<rect x="66.797" y="1.769" class="st2" width="1.516" height="12.198"/>
			<path class="st2" d="M78.072,9.629c0-2.44-1.708-4.601-4.339-4.601c-2.719,0-4.566,2.004-4.566,4.583
				c0,2.614,1.865,4.583,4.67,4.583c1.743,0,3.067-0.784,3.834-1.969l-1.29-0.732c-0.436,0.714-1.307,1.272-2.509,1.272
				c-1.621,0-2.858-0.889-3.154-2.457h7.302C78.055,10.082,78.072,9.855,78.072,9.629z M70.718,8.984
				c0.244-1.516,1.377-2.527,3.015-2.527c1.307,0,2.544,0.802,2.806,2.527H70.718z"/>
		</g>
		<g>
			<rect x="19.938" y="15.309" class="st2" width="1.516" height="12.198"/>
			<path class="st2" d="M30.01,20.293c-0.697-1.063-1.812-1.725-3.294-1.725c-2.422,0-4.409,2.004-4.409,4.583
				c0,2.579,1.987,4.583,4.409,4.583c1.481,0,2.597-0.662,3.294-1.725v1.499h1.516v-8.713H30.01V20.293z M26.908,26.27
				c-1.743,0-3.084-1.342-3.084-3.119c0-1.778,1.342-3.119,3.084-3.119c1.76,0,3.102,1.342,3.102,3.119
				C30.01,24.929,28.668,26.27,26.908,26.27z"/>
			<path class="st2" d="M37.66,18.568c-1.481,0-2.597,0.662-3.294,1.725v-4.984h-1.516v12.198h1.516v-1.499
				c0.697,1.063,1.812,1.725,3.294,1.725c2.422,0,4.409-2.004,4.409-4.583C42.069,20.572,40.083,18.568,37.66,18.568z M37.469,26.27
				c-1.76,0-3.102-1.342-3.102-3.119c0-1.778,1.342-3.119,3.102-3.119c1.743,0,3.084,1.342,3.084,3.119
				C40.553,24.929,39.211,26.27,37.469,26.27z"/>
			<path class="st2" d="M44.108,21.147c0-0.784,0.767-1.168,1.551-1.168c0.767,0,1.534,0.331,1.865,1.115l1.272-0.715
				c-0.558-1.133-1.708-1.812-3.137-1.812c-1.76,0-3.084,1.063-3.084,2.596c0,3.154,4.879,2.091,4.879,3.956
				c0,0.854-0.802,1.185-1.725,1.185c-1.08,0-1.882-0.523-2.161-1.359l-1.307,0.749c0.505,1.202,1.725,2.039,3.468,2.039
				c1.865,0,3.259-0.993,3.259-2.614C48.988,21.914,44.108,23.012,44.108,21.147z"/>
		</g>
	</g>
</g>
</svg>
